<?xml version="1.0" encoding="UTF-8"?>
<svg xmlns="http://www.w3.org/2000/svg" xmlns:xlink="http://www.w3.org/1999/xlink" width="144pt" height="144pt" viewBox="0 0 144 144" version="1.1">
<g id="surface41">
<path style="fill-rule:nonzero;fill:rgb(50%,50%,100%);fill-opacity:1;stroke-width:0.005;stroke-linecap:butt;stroke-linejoin:miter;stroke:rgb(0%,0%,0%);stroke-opacity:1;stroke-miterlimit:10;" d="M 0.0795898 0.159993 L 0.0655382 0.159993 L 0.0655382 0.0703939 C 0.0621202 0.073622 0.0576986 0.07685 0.052219 0.0800781 C 0.0467122 0.0833062 0.0417752 0.0857476 0.0374078 0.0873481 L 0.0374078 0.0737305 C 0.0452745 0.0700412 0.0521376 0.0655653 0.0580241 0.0603027 C 0.0639106 0.0550401 0.0680881 0.0499403 0.0705295 0.0450033 L 0.0795898 0.0450033 Z M 0.300537 0.146484 L 0.300537 0.159993 L 0.224854 0.159993 C 0.224718 0.15663 0.22526 0.153375 0.226481 0.150228 C 0.22838 0.145074 0.231472 0.140001 0.235731 0.13501 C 0.239963 0.130018 0.246094 0.12424 0.25415 0.117649 C 0.266574 0.107476 0.274984 0.0993924 0.279378 0.0933974 C 0.283719 0.0874566 0.285916 0.0818142 0.285943 0.0764703 C 0.285916 0.0709093 0.283908 0.0662164 0.279948 0.0623915 C 0.275933 0.0585666 0.270752 0.0566406 0.264377 0.0566406 C 0.257568 0.0566406 0.252143 0.0586751 0.248101 0.0627441 C 0.244032 0.0668132 0.24197 0.0724284 0.241943 0.0795898 L 0.227485 0.078125 C 0.228461 0.0673557 0.232178 0.0591634 0.238661 0.0534939 C 0.24509 0.0478516 0.253771 0.0450033 0.264676 0.0450033 C 0.275662 0.0450033 0.284342 0.0480686 0.290771 0.054145 C 0.297173 0.0602756 0.300401 0.0678168 0.300401 0.0767958 C 0.300401 0.0813802 0.299452 0.0858832 0.29758 0.0903049 C 0.295681 0.0947537 0.292562 0.0994195 0.288222 0.104302 C 0.283854 0.109212 0.276638 0.11594 0.266547 0.124457 C 0.258111 0.131565 0.252686 0.136366 0.250298 0.138862 C 0.247884 0.141412 0.245904 0.143934 0.244385 0.146484 Z M 0.426731 0.129747 L 0.440782 0.127875 C 0.442383 0.135878 0.445123 0.141629 0.449002 0.145128 C 0.452881 0.148655 0.457628 0.150391 0.463216 0.150391 C 0.469808 0.150391 0.475369 0.148112 0.479953 0.143528 C 0.484484 0.138943 0.486762 0.133247 0.486789 0.126465 C 0.486762 0.120009 0.484673 0.114692 0.480469 0.110514 C 0.476237 0.106337 0.470866 0.104248 0.464383 0.104221 C 0.461697 0.104248 0.458388 0.104763 0.454454 0.105767 L 0.456028 0.0934245 C 0.45695 0.093533 0.457709 0.0935872 0.458279 0.0935872 C 0.464247 0.0935872 0.469645 0.092041 0.474447 0.0888943 C 0.479221 0.0858019 0.481608 0.0809733 0.481635 0.0744358 C 0.481608 0.0693088 0.479872 0.0650499 0.4764 0.0616319 C 0.4729 0.0582682 0.468397 0.0565592 0.462891 0.0565592 C 0.457411 0.0565592 0.452854 0.0582954 0.449219 0.0617133 C 0.445584 0.0651855 0.443224 0.0703396 0.442193 0.0771756 L 0.428141 0.0746799 C 0.42985 0.0652669 0.433729 0.0579698 0.439833 0.0527886 C 0.445909 0.0476074 0.453505 0.0450033 0.462592 0.0450033 C 0.468804 0.0450033 0.474555 0.0463596 0.479845 0.049018 C 0.48508 0.0517307 0.489095 0.0553928 0.491916 0.0600043 C 0.494683 0.0646701 0.496094 0.0695801 0.496094 0.0747613 C 0.496094 0.0797255 0.494765 0.0842285 0.492106 0.0882975 C 0.489448 0.0923665 0.485514 0.0955946 0.480306 0.0979546 C 0.487088 0.0995551 0.49235 0.10281 0.496094 0.107693 C 0.499837 0.11263 0.501709 0.118788 0.501709 0.126166 C 0.501709 0.136203 0.498047 0.144667 0.490777 0.151611 C 0.483453 0.158556 0.474257 0.162028 0.463135 0.162028 C 0.453071 0.162028 0.444716 0.159044 0.438097 0.153049 C 0.431451 0.147054 0.427653 0.139296 0.426731 0.129747 Z M 0.671739 0.159993 L 0.671739 0.132568 L 0.622043 0.132568 L 0.622043 0.119683 L 0.674316 0.0454644 L 0.685791 0.0454644 L 0.685791 0.119683 L 0.701253 0.119683 L 0.701253 0.132568 L 0.685791 0.132568 L 0.685791 0.159993 Z M 0.671739 0.119683 L 0.671739 0.0680339 L 0.635878 0.119683 Z M 0.826633 0.129991 L 0.84139 0.128743 C 0.842475 0.135932 0.844998 0.141357 0.849013 0.144965 C 0.852973 0.1486 0.857775 0.150391 0.863417 0.150391 C 0.870171 0.150391 0.875922 0.147841 0.880615 0.142741 C 0.885281 0.137641 0.887614 0.130887 0.887641 0.122423 C 0.887614 0.114421 0.885362 0.108073 0.880887 0.103434 C 0.876356 0.0988227 0.87047 0.0965169 0.8632 0.0964898 C 0.858643 0.0965169 0.854546 0.0975477 0.850911 0.0995822 C 0.847276 0.101644 0.844401 0.104302 0.842339 0.107585 L 0.829129 0.105849 L 0.840224 0.0470378 L 0.897163 0.0470378 L 0.897163 0.0604655 L 0.851481 0.0604655 L 0.845296 0.0912543 C 0.852159 0.08648 0.859375 0.0840658 0.866943 0.0840658 C 0.876926 0.0840658 0.885362 0.087538 0.892253 0.0944553 C 0.899116 0.1014 0.902534 0.110297 0.902561 0.121175 C 0.902534 0.131538 0.899523 0.140489 0.8935 0.148031 C 0.886149 0.157308 0.876112 0.161947 0.863417 0.161947 C 0.852973 0.161947 0.844482 0.159044 0.837918 0.153212 C 0.831326 0.14738 0.827555 0.139648 0.826633 0.129991 Z M 0.0996094 0.273519 L 0.085612 0.274604 C 0.084337 0.269097 0.0825738 0.265082 0.0802951 0.262587 C 0.0764974 0.258572 0.0718045 0.256565 0.0662435 0.256565 C 0.0617405 0.256565 0.0578071 0.257813 0.0544434 0.260308 C 0.0499946 0.263563 0.0464952 0.268283 0.0439724 0.274468 C 0.0413954 0.280653 0.0400662 0.289497 0.0399848 0.300944 C 0.0433485 0.295817 0.0474989 0.291992 0.0524089 0.289469 C 0.0572917 0.286974 0.0624186 0.285699 0.0678168 0.285699 C 0.0771484 0.285699 0.0851237 0.289171 0.0917426 0.296061 C 0.0983073 0.302979 0.101617 0.311876 0.101644 0.322808 C 0.101617 0.330024 0.100071 0.336724 0.0969781 0.342855 C 0.0938856 0.34904 0.0896267 0.35376 0.0842014 0.357042 C 0.078776 0.360324 0.0726183 0.361952 0.0657823 0.361952 C 0.0540365 0.361952 0.0444878 0.357666 0.0371094 0.34904 C 0.0297038 0.340441 0.0260145 0.326226 0.0260145 0.306396 C 0.0260145 0.284288 0.0300836 0.268175 0.0382758 0.258111 C 0.045383 0.249376 0.055013 0.245009 0.0671115 0.245009 C 0.0761176 0.245009 0.0834961 0.247531 0.089247 0.252577 C 0.0949978 0.257623 0.0984429 0.264621 0.0996094 0.273519 Z M 0.0421821 0.32289 C 0.0421549 0.327745 0.0431858 0.332384 0.0452474 0.336806 C 0.0472819 0.341227 0.0501573 0.344618 0.0538737 0.346924 C 0.0575629 0.349257 0.0614421 0.350396 0.0655382 0.350396 C 0.0714518 0.350396 0.0765516 0.348009 0.0808377 0.343207 C 0.0850966 0.338433 0.0872396 0.331923 0.0872667 0.323676 C 0.0872396 0.315782 0.0851237 0.309543 0.0809191 0.304959 C 0.0766873 0.300429 0.0713976 0.29815 0.0649957 0.298123 C 0.058648 0.29815 0.0532498 0.300429 0.0488281 0.304959 C 0.0443793 0.309543 0.0421549 0.315511 0.0421821 0.32289 Z M 0.227566 0.260471 L 0.227566 0.246962 L 0.301704 0.246962 L 0.301704 0.257894 C 0.294406 0.265679 0.287164 0.275987 0.280029 0.288845 C 0.272841 0.301731 0.267307 0.314941 0.263428 0.328505 C 0.260607 0.338108 0.258816 0.348606 0.258057 0.359999 L 0.243598 0.359999 C 0.243734 0.350993 0.245497 0.340115 0.248888 0.327365 C 0.252279 0.314616 0.257134 0.302327 0.263482 0.290446 C 0.269803 0.278619 0.27653 0.268609 0.283664 0.260471 Z M 0.448296 0.297879 C 0.442437 0.295763 0.438124 0.292725 0.435303 0.288764 C 0.432482 0.284831 0.431071 0.280084 0.431098 0.274523 C 0.431071 0.266195 0.434055 0.259196 0.440077 0.253526 C 0.446045 0.247857 0.45402 0.245009 0.463976 0.245009 C 0.473958 0.245009 0.482015 0.247911 0.488118 0.253716 C 0.494195 0.259521 0.497233 0.266602 0.49726 0.274929 C 0.497233 0.280246 0.49585 0.284858 0.493083 0.288791 C 0.490289 0.292725 0.486057 0.295763 0.480387 0.297879 C 0.487413 0.300184 0.492757 0.303901 0.496446 0.309001 C 0.500109 0.314128 0.501953 0.320204 0.501953 0.327257 C 0.501953 0.337077 0.498481 0.345323 0.491564 0.351969 C 0.484619 0.358643 0.475505 0.361952 0.46422 0.361952 C 0.452908 0.361952 0.443793 0.358615 0.436876 0.351915 C 0.429932 0.345242 0.426459 0.336887 0.426487 0.326877 C 0.426459 0.319444 0.428358 0.313205 0.432156 0.30816 C 0.435927 0.303141 0.441298 0.299723 0.448296 0.297879 Z M 0.445475 0.274061 C 0.445475 0.279487 0.447211 0.283936 0.450711 0.287354 C 0.454183 0.290826 0.458713 0.292535 0.464301 0.292508 C 0.469699 0.292535 0.474148 0.290826 0.47762 0.287381 C 0.481093 0.28399 0.482829 0.279812 0.482829 0.274848 C 0.482829 0.269721 0.481038 0.265381 0.477458 0.261854 C 0.473877 0.258328 0.469428 0.256565 0.464138 0.256565 C 0.458767 0.256565 0.454319 0.258301 0.450792 0.261719 C 0.447238 0.265191 0.445475 0.269287 0.445475 0.274061 Z M 0.440945 0.326959 C 0.440918 0.330973 0.441867 0.334852 0.443793 0.338596 C 0.445665 0.342339 0.448486 0.345242 0.452257 0.347304 C 0.456 0.349365 0.460042 0.350396 0.464383 0.350396 C 0.471083 0.350396 0.476617 0.348253 0.481011 0.343913 C 0.485352 0.339627 0.487549 0.33412 0.487576 0.32742 C 0.487549 0.320665 0.485297 0.315077 0.480821 0.310628 C 0.476291 0.306234 0.470649 0.304009 0.463921 0.303982 C 0.457275 0.304009 0.451796 0.306207 0.447456 0.310547 C 0.443088 0.314941 0.440918 0.320394 0.440945 0.326959 Z M 0.628771 0.333523 L 0.64228 0.332275 C 0.643392 0.33865 0.645589 0.343262 0.648817 0.34611 C 0.652045 0.348985 0.656196 0.350396 0.661268 0.350396 C 0.665582 0.350396 0.669352 0.349419 0.672635 0.347439 C 0.675863 0.345459 0.678548 0.342801 0.680637 0.339491 C 0.682699 0.336182 0.684435 0.331733 0.685872 0.32609 C 0.687256 0.320502 0.687961 0.314752 0.687988 0.308892 C 0.687961 0.308295 0.687934 0.307373 0.687907 0.306098 C 0.685059 0.310574 0.681207 0.314209 0.676378 0.317003 C 0.671495 0.319797 0.666233 0.321181 0.660563 0.321181 C 0.651069 0.321181 0.643039 0.317763 0.636502 0.310872 C 0.62991 0.304009 0.626628 0.294922 0.626655 0.283664 C 0.626628 0.272054 0.630046 0.262722 0.636909 0.255642 C 0.643745 0.248562 0.652344 0.245009 0.662652 0.245009 C 0.670085 0.245009 0.676893 0.247016 0.683078 0.251031 C 0.689263 0.255046 0.693956 0.260769 0.697157 0.268175 C 0.700358 0.275608 0.701959 0.28635 0.701959 0.300401 C 0.701959 0.31505 0.700358 0.326714 0.697184 0.335368 C 0.69401 0.344048 0.68929 0.35064 0.683024 0.35517 C 0.676731 0.359701 0.669379 0.361952 0.660943 0.361952 C 0.651991 0.361952 0.644667 0.359484 0.638997 0.354492 C 0.633301 0.349555 0.629883 0.342556 0.628771 0.333523 Z M 0.686334 0.282959 C 0.686334 0.274929 0.684163 0.268528 0.679877 0.263753 C 0.675564 0.259033 0.67041 0.256646 0.664388 0.256646 C 0.658122 0.256646 0.652669 0.259196 0.648058 0.264296 C 0.643392 0.269396 0.641086 0.276015 0.641113 0.284153 C 0.641086 0.29145 0.643283 0.29739 0.647705 0.301921 C 0.652072 0.306505 0.657498 0.308784 0.663981 0.308757 C 0.670464 0.308784 0.675808 0.306505 0.68004 0.301921 C 0.684218 0.29739 0.686334 0.29107 0.686334 0.282959 Z M 0.834446 0.29305 L 0.834446 0.277018 L 0.85045 0.277018 L 0.85045 0.29305 Z M 0.834446 0.359999 L 0.834446 0.343994 L 0.85045 0.343994 L 0.85045 0.359999 Z M 0.0342068 0.493056 L 0.0342068 0.477024 L 0.0502387 0.477024 L 0.0502387 0.493056 Z M 0.0342068 0.560004 L 0.0342068 0.544 L 0.0502387 0.544 L 0.0502387 0.560004 C 0.0502116 0.565864 0.0491808 0.570611 0.047092 0.574246 C 0.0450033 0.577881 0.0416938 0.580675 0.0371908 0.582655 L 0.0332845 0.576633 C 0.0362413 0.575304 0.0384115 0.573378 0.039822 0.570882 C 0.0412055 0.568332 0.0419922 0.564724 0.0421821 0.560004 Z M 0.22876 0.509928 L 0.22876 0.496799 L 0.304606 0.464762 L 0.304606 0.47876 L 0.244439 0.503445 L 0.304606 0.528375 L 0.304606 0.542345 Z M 0.50453 0.492649 L 0.428901 0.492649 L 0.428901 0.479546 L 0.50453 0.479546 Z M 0.50453 0.527425 L 0.428901 0.527425 L 0.428901 0.514296 L 0.50453 0.514296 Z M 0.704617 0.509928 L 0.628771 0.542345 L 0.628771 0.528375 L 0.688829 0.503445 L 0.628771 0.47876 L 0.628771 0.464762 L 0.704617 0.496799 Z M 0.856852 0.531793 C 0.856798 0.529948 0.856771 0.528537 0.856771 0.527588 C 0.856771 0.522081 0.857558 0.517307 0.859131 0.513292 C 0.86027 0.510281 0.862115 0.507243 0.864665 0.50415 C 0.866536 0.501926 0.8699 0.498671 0.874783 0.494358 C 0.879639 0.490072 0.882813 0.486627 0.884277 0.484077 C 0.885742 0.481527 0.886475 0.478733 0.886475 0.475694 C 0.886475 0.470242 0.884332 0.465441 0.880073 0.46129 C 0.875787 0.457167 0.870551 0.455105 0.864366 0.455078 C 0.858371 0.455105 0.85338 0.456977 0.849365 0.46072 C 0.84535 0.464464 0.842719 0.470323 0.841471 0.478299 L 0.827013 0.476563 C 0.828288 0.465902 0.832167 0.457737 0.838623 0.45204 C 0.845052 0.446398 0.853543 0.443549 0.864122 0.443522 C 0.875298 0.443549 0.884223 0.446587 0.890923 0.452664 C 0.897569 0.458767 0.900906 0.466146 0.900933 0.474772 C 0.900906 0.479791 0.89974 0.484402 0.897407 0.488607 C 0.895047 0.492839 0.890462 0.497965 0.883653 0.503988 C 0.879069 0.508084 0.876085 0.511095 0.874674 0.512994 C 0.873264 0.514947 0.872206 0.517144 0.871528 0.519613 C 0.87085 0.522135 0.87047 0.526204 0.870388 0.531793 Z M 0.856011 0.560004 L 0.856011 0.544 L 0.872016 0.544 L 0.872016 0.560004 Z M 0.110704 0.747287 C 0.107286 0.751221 0.103488 0.754367 0.099311 0.7567 C 0.0951063 0.759087 0.0909288 0.760254 0.0867242 0.760254 C 0.0820584 0.760254 0.0775282 0.758898 0.0731879 0.756185 C 0.0687934 0.753472 0.0652398 0.749322 0.0625271 0.743679 C 0.0597602 0.738091 0.0584039 0.731906 0.058431 0.725179 C 0.0584039 0.716905 0.0605197 0.708632 0.0647786 0.700304 C 0.0690104 0.692003 0.074273 0.685764 0.0805935 0.681586 C 0.0868869 0.677436 0.0930176 0.675347 0.0989855 0.67532 C 0.103488 0.675347 0.107802 0.676514 0.111925 0.678874 C 0.116021 0.681261 0.119575 0.684869 0.122559 0.689697 L 0.125217 0.677599 L 0.139214 0.677599 L 0.127957 0.730008 C 0.126383 0.737332 0.125624 0.741347 0.125624 0.742106 C 0.125624 0.743517 0.126139 0.744737 0.127224 0.745768 C 0.128255 0.746799 0.129557 0.747314 0.131076 0.747287 C 0.133843 0.747314 0.137451 0.745714 0.141954 0.742513 C 0.147868 0.738336 0.152561 0.732747 0.156033 0.725749 C 0.159478 0.71875 0.161214 0.711534 0.161241 0.704074 C 0.161214 0.695394 0.15899 0.687283 0.154568 0.679715 C 0.150092 0.672173 0.143446 0.666124 0.13463 0.661594 C 0.125787 0.657064 0.116048 0.654785 0.105387 0.654785 C 0.0931803 0.654785 0.0820313 0.657633 0.0719672 0.66333 C 0.0618761 0.669027 0.0540636 0.677219 0.0485297 0.687853 C 0.0429688 0.698541 0.0402018 0.709961 0.0402289 0.722114 C 0.0402018 0.734918 0.0429688 0.745904 0.0485297 0.7551 C 0.0540636 0.764296 0.0620931 0.771077 0.0725911 0.775499 C 0.0830892 0.779894 0.0947266 0.782091 0.107503 0.782118 C 0.121121 0.782091 0.132541 0.779812 0.141791 0.775228 C 0.150987 0.770643 0.157905 0.765082 0.162489 0.758518 L 0.176622 0.758518 C 0.173964 0.763997 0.169406 0.769558 0.16295 0.775255 C 0.156467 0.780924 0.14879 0.7854 0.139893 0.78871 C 0.130968 0.791992 0.120253 0.793647 0.10772 0.793674 C 0.0961643 0.793647 0.0855035 0.792182 0.0757378 0.789225 C 0.0659722 0.786241 0.0576443 0.781765 0.0507813 0.775825 C 0.0438911 0.76983 0.0387099 0.762994 0.0352376 0.755235 C 0.0308431 0.745416 0.0286458 0.734782 0.028673 0.723362 C 0.0286458 0.710693 0.03125 0.698595 0.0364855 0.687039 C 0.042806 0.67296 0.0518392 0.662137 0.0635308 0.654622 C 0.0752224 0.647135 0.0894097 0.643392 0.106093 0.643365 C 0.119005 0.643392 0.130588 0.64605 0.140896 0.651313 C 0.15115 0.65663 0.159261 0.664497 0.165229 0.67494 C 0.170247 0.683974 0.17277 0.693766 0.172797 0.704319 C 0.17277 0.719428 0.16748 0.732829 0.156874 0.744548 C 0.14738 0.755073 0.137017 0.760335 0.125787 0.760335 C 0.122179 0.760335 0.119249 0.759793 0.117052 0.758708 C 0.114827 0.757623 0.1132 0.756049 0.112169 0.753988 C 0.111464 0.752686 0.110975 0.750461 0.110704 0.747287 Z M 0.0728895 0.726101 C 0.0728895 0.733263 0.0745714 0.738797 0.0779622 0.742757 C 0.081326 0.746718 0.0852051 0.748698 0.0895996 0.748671 C 0.0925022 0.748698 0.0955675 0.74783 0.0987956 0.746067 C 0.102024 0.744331 0.105116 0.741726 0.108073 0.738281 C 0.111003 0.734863 0.113417 0.730523 0.115289 0.725206 C 0.11716 0.719944 0.118083 0.714627 0.11811 0.70931 C 0.118083 0.70223 0.116319 0.69675 0.11282 0.692817 C 0.109294 0.688938 0.105035 0.686985 0.0999891 0.686957 C 0.0966526 0.686985 0.0935059 0.687826 0.0905762 0.689507 C 0.0876194 0.691216 0.0847711 0.693929 0.0820041 0.697673 C 0.0792372 0.701416 0.0770128 0.705973 0.0753852 0.711344 C 0.0737033 0.716715 0.0728895 0.721653 0.0728895 0.726101 Z M 0.219754 0.76001 L 0.263753 0.645481 L 0.280084 0.645481 L 0.326959 0.76001 L 0.309679 0.76001 L 0.296332 0.725315 L 0.248427 0.725315 L 0.235867 0.76001 Z M 0.252821 0.712972 L 0.29164 0.712972 L 0.279677 0.681261 C 0.276015 0.671658 0.273302 0.663737 0.271566 0.657498 C 0.270074 0.664876 0.268012 0.672173 0.265381 0.679389 Z M 0.431722 0.76001 L 0.431722 0.645481 L 0.474691 0.645481 C 0.483426 0.645508 0.490424 0.646674 0.495741 0.648953 C 0.501004 0.651286 0.505154 0.654839 0.508165 0.659668 C 0.511149 0.664497 0.512641 0.669542 0.512668 0.674778 C 0.512641 0.679688 0.511312 0.684299 0.508681 0.688612 C 0.505995 0.692952 0.50198 0.696452 0.496636 0.699083 C 0.503526 0.701145 0.50887 0.70459 0.512614 0.709473 C 0.51633 0.714355 0.518175 0.720133 0.518202 0.726807 C 0.518175 0.732178 0.517063 0.737169 0.514811 0.741781 C 0.512533 0.746392 0.509711 0.749946 0.506402 0.752441 C 0.503038 0.754937 0.498861 0.756836 0.493869 0.758111 C 0.488824 0.759386 0.482666 0.76001 0.475396 0.76001 Z M 0.446886 0.693604 L 0.471653 0.693604 C 0.478326 0.693604 0.483154 0.693169 0.486084 0.692274 C 0.489936 0.691162 0.492839 0.689263 0.494819 0.686578 C 0.496745 0.683946 0.497721 0.68061 0.497748 0.676568 C 0.497721 0.672797 0.496799 0.669461 0.495009 0.666531 C 0.493164 0.663656 0.49056 0.661675 0.487196 0.66059 C 0.483778 0.659559 0.477973 0.659017 0.469781 0.65899 L 0.446886 0.65899 Z M 0.446886 0.746501 L 0.475396 0.746501 C 0.480279 0.746501 0.483724 0.746338 0.485704 0.745958 C 0.489176 0.745361 0.492079 0.744303 0.494439 0.742839 C 0.496772 0.741374 0.498698 0.739258 0.500217 0.736464 C 0.501709 0.733697 0.502469 0.730469 0.502496 0.726807 C 0.502469 0.722548 0.501383 0.718859 0.499213 0.715685 C 0.497016 0.712538 0.493978 0.710314 0.490099 0.709039 C 0.48622 0.707764 0.480632 0.707113 0.473362 0.707113 L 0.446886 0.707113 Z M 0.714084 0.719862 L 0.729221 0.723687 C 0.726047 0.736138 0.720323 0.745633 0.712077 0.75217 C 0.703803 0.758708 0.693712 0.761963 0.681803 0.761963 C 0.669461 0.761963 0.659424 0.759467 0.651693 0.754422 C 0.643934 0.74943 0.638048 0.742133 0.634033 0.732585 C 0.629991 0.723063 0.627984 0.712836 0.627984 0.701877 C 0.627984 0.689969 0.630263 0.679579 0.63482 0.670681 C 0.639377 0.661838 0.64586 0.655084 0.65427 0.650445 C 0.662679 0.64586 0.671929 0.643555 0.682048 0.643528 C 0.693468 0.643555 0.703098 0.646484 0.710938 0.652289 C 0.718723 0.658149 0.724175 0.666341 0.727268 0.676893 L 0.712348 0.680393 C 0.709663 0.672065 0.705811 0.665988 0.700792 0.662191 C 0.695719 0.658393 0.689372 0.656494 0.681722 0.656494 C 0.672906 0.656494 0.665554 0.65861 0.659641 0.662842 C 0.653727 0.667074 0.649577 0.672743 0.64719 0.679823 C 0.644803 0.686957 0.643609 0.694282 0.643609 0.701796 C 0.643609 0.711561 0.64502 0.720079 0.647868 0.727322 C 0.650689 0.734592 0.655111 0.740017 0.661106 0.743598 C 0.667074 0.747233 0.673557 0.749023 0.680556 0.748996 C 0.689019 0.749023 0.696181 0.746582 0.702094 0.741645 C 0.707954 0.736762 0.711968 0.729492 0.714084 0.719862 Z M 0.83233 0.76001 L 0.83233 0.645481 L 0.871772 0.645481 C 0.880669 0.645508 0.887478 0.64605 0.892171 0.647108 C 0.898736 0.648655 0.904324 0.651394 0.908963 0.655328 C 0.914985 0.660455 0.919515 0.666965 0.922526 0.674886 C 0.92551 0.682834 0.927002 0.691922 0.927029 0.702121 C 0.927002 0.710829 0.925971 0.718533 0.923964 0.72526 C 0.921902 0.731988 0.919298 0.737549 0.916151 0.741943 C 0.91295 0.746338 0.909478 0.74981 0.905735 0.752333 C 0.901937 0.754856 0.89738 0.756755 0.892063 0.758057 C 0.886692 0.759359 0.880561 0.76001 0.873671 0.76001 Z M 0.847493 0.746501 L 0.871935 0.746501 C 0.879476 0.746501 0.88539 0.745795 0.889703 0.744385 C 0.893989 0.742974 0.897434 0.740994 0.899984 0.738444 C 0.903564 0.734863 0.906359 0.730035 0.908393 0.723958 C 0.910373 0.717882 0.911377 0.710531 0.911404 0.701877 C 0.911377 0.689914 0.909397 0.680718 0.90549 0.674289 C 0.90153 0.66786 0.896756 0.663547 0.891168 0.66135 C 0.887071 0.659804 0.880534 0.659017 0.871555 0.65899 L 0.847493 0.65899 Z M 0.0326606 0.959988 L 0.0326606 0.845459 L 0.115451 0.845459 L 0.115451 0.858968 L 0.0477973 0.858968 L 0.0477973 0.894043 L 0.111165 0.894043 L 0.111165 0.907498 L 0.0477973 0.907498 L 0.0477973 0.946479 L 0.11811 0.946479 L 0.11811 0.959988 Z M 0.233127 0.959988 L 0.233127 0.845459 L 0.310384 0.845459 L 0.310384 0.858968 L 0.248291 0.858968 L 0.248291 0.89445 L 0.302029 0.89445 L 0.302029 0.907959 L 0.248291 0.907959 L 0.248291 0.959988 Z M 0.485948 0.915066 L 0.485948 0.901638 L 0.534451 0.901557 L 0.534451 0.944038 C 0.526991 0.950005 0.519314 0.954481 0.511393 0.957465 C 0.503472 0.960449 0.495334 0.961941 0.487033 0.961941 C 0.475749 0.961941 0.465522 0.959554 0.456353 0.954725 C 0.44713 0.949924 0.440213 0.942952 0.435547 0.933811 C 0.430854 0.924723 0.428494 0.914524 0.428521 0.903266 C 0.428494 0.892144 0.430827 0.881755 0.435493 0.87207 C 0.440131 0.862413 0.446832 0.855225 0.455621 0.850532 C 0.464355 0.845866 0.474447 0.843533 0.485867 0.843506 C 0.494141 0.843533 0.501628 0.844889 0.508328 0.847548 C 0.515001 0.85026 0.520237 0.853977 0.524061 0.858751 C 0.527832 0.863525 0.530735 0.869792 0.532742 0.877496 L 0.51907 0.881239 C 0.517334 0.875434 0.515191 0.87085 0.512668 0.867486 C 0.510091 0.864176 0.506456 0.861491 0.501709 0.859484 C 0.496962 0.857476 0.491699 0.856472 0.485948 0.856472 C 0.479004 0.856472 0.473009 0.85753 0.467963 0.859646 C 0.462891 0.861762 0.458822 0.864529 0.455729 0.867947 C 0.452637 0.871392 0.450222 0.87519 0.448513 0.879286 C 0.445584 0.886393 0.444119 0.89407 0.444146 0.902344 C 0.444119 0.912571 0.445882 0.921115 0.449409 0.927951 C 0.452908 0.934842 0.458035 0.939941 0.464762 0.943278 C 0.47149 0.946615 0.478624 0.948269 0.486165 0.948269 C 0.49273 0.948269 0.499132 0.947021 0.505371 0.944499 C 0.51161 0.941976 0.516357 0.939263 0.519613 0.936388 L 0.519613 0.915066 Z M 0.632813 0.959988 L 0.632813 0.845459 L 0.647976 0.845459 L 0.647976 0.892497 L 0.70752 0.892497 L 0.70752 0.845459 L 0.722656 0.845459 L 0.722656 0.959988 L 0.70752 0.959988 L 0.70752 0.906006 L 0.647976 0.906006 L 0.647976 0.959988 Z M 0.834907 0.959988 L 0.834907 0.845459 L 0.850071 0.845459 L 0.850071 0.959988 Z " transform="matrix(144,0,0,144,0,0)"/>
</g>
</svg>
