<?xml version="1.0" encoding="utf-8"?>
<?xml-stylesheet type="text/css" href="../../customcolors.css"?>
<!DOCTYPE svg PUBLIC "-//W3C//DTD SVG 1.1//EN" "http://www.w3.org/Graphics/SVG/1.1/DTD/svg11.dtd">
<svg xmlns="http://www.w3.org/2000/svg" xmlns:xlink="http://www.w3.org/1999/xlink" contentScriptType="text/ecmascript" zoomAndPan="magnify" contentStyleType="text/css" id="SR_US_122655382" version="1.1" width="960" xml:space="preserve" preserveAspectRatio="xMidYMid meet" viewBox="0 0 960 720" height="720" x="0px" y="0px">
  <mr:routes xmlns:mr="http://www.navteq.com/SaR3/1.0" sourceLinkPVId="122655382">
    <mr:route destinationLinkPVId="23223863">
      <mr:lane destinationLanePVId="20636994" sourceLanePVId="20636922"/>
      <mr:lane destinationLanePVId="20636995" sourceLanePVId="20636923"/>
    </mr:route>
    <mr:route conditionId="1417732106" destinationLinkPVId="23223865">
      <mr:lane destinationLanePVId="20636996" sourceLanePVId="20636923">
        <mr:SVGObject refId="A1"/>
      </mr:lane>
    </mr:route>
  </mr:routes>
  <g id="Signs" transform="translate(47.999939,47.825581) scale(2.945310,2.945310)">
    <g id="SIGN_R1">
      <g type="Panel" id="A1">
        <g type="Background" id="A2">
          <path class="background_fill_8" d="M171.71,34.002H2.999C1.346,34.002,0,32.658,0,31.003V3c0-1.654,1.344-3,2.999-3H171.71c1.654,0,3,1.346,3,3v28.003C174.711,32.658,173.365,34.002,171.71,34.002L171.71,34.002z"/>
        </g>
        <g type="Icon" id="A3">
          <path class="icon_fill_22" d="M168.035,26.958c0,0.66-0.535,1.196-1.199,1.196h-19.16c-0.662,0-1.196-0.536-1.196-1.196V7.796c0-0.662,0.534-1.199,1.196-1.199h19.16c0.664,0,1.199,0.537,1.199,1.199V26.958L168.035,26.958z"/>
          <path class="icon_fill_1" d="M167.508,7.796c0-0.371-0.301-0.671-0.672-0.671h-19.16c-0.369,0-0.67,0.3-0.67,0.671v19.162c0,0.368,0.301,0.669,0.67,0.669h19.16c0.371,0,0.672-0.301,0.672-0.669V7.796"/>
          <path class="icon_fill_22" d="M154.039,8.557v6.76h6.525v-6.76h3.703V26.08h-3.703v-7.307h-6.525v7.307h-3.703V8.557H154.039z"/>
        </g>
        <g type="Arrow" id="A4">
          <polygon class="arrow_fill_22" points="115.371,26.346 117.938,28.798 129.791,16.377 133.869,20.271 132.554,8.337 120.574,7.583 124.652,11.477 112.802,23.898       "/>
        </g>
        <g type="Text" id="A5">
          <text x="5.3711" font-size="16.5" y="23.627" class="text_fill_22 text_font-family_2 text_font-weight_2">NW  14th  St</text>
        </g>
      </g>
    </g>
  </g>
</svg>